:SAMPLES-PER-SECOND 30
:FULLY-SPECIFIED
:DEGREES
470
root  -1.26221 38.3451 0.086492 98.4796 -81.7589 -101.223
RightUpLeg  1.79363 -11.6831 -11.7928
RightLeg  2.86965 1.36256 2.37078
RightFoot  3.06264 -3.33262 26.1159
RightToes  -6.40286e-010 0 -3.6325e-017
Spine  6.90185 -0.771993 2.1971
Spine1  0.715659 -2.20069 9.81254
HEad  3.45313 -7.11277 -3.76286
LeftShoulder1  2.2084 -4.31871 -21.8993
LeftArm  -3.6705 23.1749 -48.5261
LeftForeArm  11.0634 -13.0548 -10.2353
LeftHand  -0.928139 1.43935 27.0244
RightShoulder  1.04369 0.658666 18.6526
RightArm  -0.978956 -21.5393 45.116
RightForeArm  3.70314 17.386 8.04129
RightHand  -0.793822 -0.529439 -18.8908
LeftUpLeg  5.82266 19.3514 33.2138
LeftLeg  -2.133 -9.57645 4.39242
LeftFoot  3.64884 3.70823 -27.8499
LeftToes  -2.09187e-010 -4.93792e-011 -8.21189e-011
471
root  -1.15563 38.369 0.179077 90.7294 -82.6554 -93.7257
RightUpLeg  2.05988 -11.8965 -12.7046
RightLeg  3.18557 0.688084 2.01715
RightFoot  3.08582 -3.2898 25.7538
RightToes  -6.40286e-010 0 -3.6325e-017
Spine  7.08589 -0.80636 1.97537
Spine1  0.895931 -2.20018 9.48934
HEad  3.45774 -9.01582 -3.03809
LeftShoulder1  2.18447 -4.43233 -21.148
LeftArm  -8.25345 23.3188 -49.8564
LeftForeArm  11.4139 -11.1651 -10.8229
LeftHand  -0.86276 1.46479 25.3381
RightShoulder  1.01602 0.61996 18.1784
RightArm  -4.45571 -21.0597 45.3276
RightForeArm  6.0889 15.5898 9.01052
RightHand  -0.707977 -0.847681 -18.0193
LeftUpLeg  5.43455 19.1307 32.2036
LeftLeg  -2.31738 -10.3318 4.10758
LeftFoot  3.81788 3.72275 -27.6577
LeftToes  -2.09187e-010 -4.93792e-011 -8.21189e-011
472
root  -1.06137 38.3792 0.319961 78.1282 -83.2576 -81.5099
RightUpLeg  2.74646 -12.1415 -13.688
RightLeg  3.28636 -0.202305 1.64271
RightFoot  3.18141 -3.29843 25.6573
RightToes  -6.40286e-010 0 -3.6325e-017
Spine  7.26135 -1.02255 1.85357
Spine1  1.32201 -2.39726 9.08286
HEad  3.12692 -10.7155 -2.48826
LeftShoulder1  2.19887 -4.5516 -20.903
LeftArm  -9.70024 23.4919 -50.5306
LeftForeArm  10.4589 -10.9203 -10.8023
LeftHand  -0.84647 1.37904 24.3444
RightShoulder  0.974882 0.49675 17.8906
RightArm  -5.75587 -20.7867 45.5996
RightForeArm  6.87489 15.1504 9.17034
RightHand  -0.651706 -1.05727 -17.3862
LeftUpLeg  4.93926 19.0977 31.3734
LeftLeg  -2.22732 -11.7894 3.67815
LeftFoot  3.63792 3.72629 -28.0003
LeftToes  -2.09187e-010 -4.93792e-011 -8.21189e-011
473
root  -0.978156 38.385 0.483962 63.701 -83.4801 -67.4069
RightUpLeg  3.48486 -12.3371 -14.6483
RightLeg  3.23266 -1.21889 1.19598
RightFoot  3.36086 -3.32875 25.5844
RightToes  -6.40286e-010 0 -3.6325e-017
Spine  7.28309 -1.13676 1.68428
Spine1  1.82015 -2.5295 8.76242
HEad  2.70087 -12.4008 -2.12565
LeftShoulder1  2.26558 -4.6406 -21.4599
LeftArm  -9.06762 23.2408 -50.2158
LeftForeArm  9.35595 -11.379 -10.6791
LeftHand  -0.830336 1.44403 24.2714
RightShoulder  0.96175 0.442618 17.8932
RightArm  -4.69529 -20.8942 45.5917
RightForeArm  5.4373 15.973 8.74269
RightHand  -0.674048 -0.953279 -17.5563
LeftUpLeg  4.38177 19.1247 30.5507
LeftLeg  -2.02816 -13.2521 3.1558
LeftFoot  3.36862 3.74952 -28.6552
LeftToes  -2.09187e-010 -4.93792e-011 -8.21189e-011
474
root  -0.91277 38.3947 0.645584 50.5332 -83.6357 -54.4458
RightUpLeg  4.03505 -12.6491 -15.8188
RightLeg  3.18905 -1.832 0.816081
RightFoot  3.55608 -3.35438 25.4528
RightToes  -6.40286e-010 0 -3.6325e-017
Spine  7.16285 -1.01454 1.24521
Spine1  2.21338 -2.43744 8.54268
HEad  2.47222 -14.062 -1.8059
LeftShoulder1  2.31373 -4.6176 -22.1745
LeftArm  -7.90034 22.7096 -49.5913
LeftForeArm  8.75519 -11.8134 -10.5958
LeftHand  -0.814905 1.52985 24.3443
RightShoulder  0.970813 0.466799 17.9795
RightArm  -2.82773 -21.2595 45.509
RightForeArm  3.55092 17.029 8.20323
RightHand  -0.744527 -0.663321 -18.2243
LeftUpLeg  3.99971 18.9877 29.4736
LeftLeg  -1.94944 -14.0804 2.65086
LeftFoot  3.22195 3.77197 -29.094
LeftToes  -2.09187e-010 -4.93792e-011 -8.21189e-011
